<?xml version="1.0" standalone="no"?>
<svg version="1.0" xmlns="http://www.w3.org/2000/svg"
 width="455.000000pt" height="720.000000pt" viewBox="0 0 455.000000 720.000000"
 preserveAspectRatio="xMidYMid meet">
<title>Pine Tree List Icon</title>
<g transform="translate(0.000000,720.000000) scale(0.100000,-0.100000)"
fill="#000000" stroke="none">
<path d="M1850 6144 c-234 -502 -427 -919 -429 -925 -1 -5 33 8 78 30 65 33
91 41 136 41 l55 0 0 -50 c0 -46 -39 -127 -516 -1065 -284 -559 -515 -1018
-513 -1020 2 -2 114 39 249 90 194 75 256 94 298 95 l52 0 0 -52 c0 -49 -26
-104 -416 -873 -229 -451 -487 -957 -572 -1124 -86 -167 -151 -302 -146 -299
5 3 421 150 926 327 660 231 928 321 960 321 l43 0 -3 -820 -3 -820 226 0 226
0 -3 820 -3 820 43 0 c32 0 300 -90 960 -321 505 -177 921 -324 926 -327 5 -3
-60 132 -146 299 -85 167 -343 673 -572 1124 -390 769 -416 824 -416 873 l0
52 53 0 c41 -1 103 -20 297 -95 135 -51 247 -92 249 -90 2 2 -229 461 -513
1020 -477 938 -516 1019 -516 1065 l0 50 55 0 c45 0 71 -8 135 -40 44 -22 80
-38 80 -35 0 2 -181 393 -401 867 -221 475 -414 889 -428 920 l-26 56 -425
-914z"/>
</g>
</svg>
