<?xml version="1.0" encoding="utf-8"?>
<!-- Generator: Adobe Illustrator 22.0.0, SVG Export Plug-In . SVG Version: 6.00 Build 0)  -->
<svg version="1.1" id="Layer_1" xmlns="http://www.w3.org/2000/svg" xmlns:xlink="http://www.w3.org/1999/xlink" x="0px" y="0px"
	 viewBox="0 0 1133.9 1133.9" style="enable-background:new 0 0 1133.9 1133.9;" xml:space="preserve">
<style type="text/css">
	.st0{fill:#010101;}
	.st1{fill-rule:evenodd;clip-rule:evenodd;}
</style>
<path d="M780.6,855c-9.4-3.8-36.6-8.8-40.1-9.4c-0.6,0-1.6-0.6-2.5-1.3c-8.1-6-11.3-16.9-7.8-26.3c5-14.7,12.2-36.3,12.8-40.7
	c0.6-6.6,20.4-58.3,21.9-72.3c1.6-13.8-0.6-47.3-22.6-52.6c-21.9-5-62.6,10.3-75.2,11.6c-0.9,0-2.2,0-3.1,0
	c-16.9-0.6-29.8-15.7-30.1-32.6c-0.6-22.2-1.6-54.8-2.8-68.6c-2.2-21.9,4.4-43.8-18.5-57.9c-17.5-11-41-22.6-51.1-27.2
	c-3.1-1.6-5.3-4.1-6.3-7.5c-1.3-4.4-3.1-11.3-4.4-17.5c2.8,0.3,26.6,3.4,26.9-6.3c0,0-1.3-5.3-3.4-6.9c0,0,3.1-5.6,1.9-6.9
	s-3.1-2.2-3.4-2.2c-0.3,0,3.4-3.8,3.1-4.7c-0.3-0.9-2.8-5.3-0.6-6.9c1.9-1.9,6-5.3,5.6-6.9c0-1.6-0.3-3.1-4.4-5.6
	c-3.8-2.5-11.6-7.5-10.3-14.1c0,0,0.6-2.2-2.5-9.1s-16.6-22.2-22.9-26c-3.8-2.2-9.7-4.1-15.7-4.4c-1.3-7.5-3.4-15.3-6.6-21
	c-8.1-13.2-60.4-86.8-60.4-86.8s-2.8-37.9,0-45.1c2.8-7.2-26.3-19.1-37.9-26.3c-11.6-7.2-24.7,13.2-24.7,13.2l11.6,24.7
	c0,0,13.2,21.9,0,21.9c-13.2,0-22.9-2.2-22.9,2.2c0,4.4,11,11.9,24.1,18.5c13.2,6.6,37.3,51.4,39.5,57c2.2,5.3,29.8,63.6,29.8,63.6
	s-10.6,7.8-17.9,20h-0.3c-12.5,0.9-21,19.7-19.1,41.7c1.9,21.9,13.5,38.8,26,37.9c5.6-0.6,10.6-4.7,14.1-11.3
	c5,4.4,13.5,8.1,27.9,7.5c9.7-0.3,1.6,91.1,16,104.3c14.7,13.2,21.9,43.5,24.7,49.5c2.8,6-2.8,39.5-17.5,57
	c-14.7,17.5-27.9,48.2-24.7,59.8c2.8,11.6,4.7,25.1,6.9,30.7c2.2,5.3-39.5,49.2-49.2,65.8c-9.7,16.3-56.1-2.2-68-6.6
	c-11.6-4.4-35.7-10.3-45.1-10.3c-9.4,0-46.7,6-50.4,6c-3.8,0-23.5-2.2-23.5-2.2s-19.7-12.5-19.7-14.7c0-2.2-11.6,0-13.2,6.6
	c-1.6,6.6-5,48.2-5,68.6c0,20.4,0,25.1,6,26c6,0.9,17.5,1.3,20.4,0c2.8-1.3,11-3.4,11-9.4s-11.6-13.8-11.6-17.5
	c0-3.8,12.8-18.2,12.5-20.4c-0.9-6,130,10,151.9,27.9c13.8,11.3,37.6,11.3,53.9,5c57-21.3,96.8-101.5,112.1-118.4
	c1.6-1.9,3.4-3.4,5.3-5c14.1-10,72.7-52.6,77.4-53.2c5-0.6,19.7-6.6,19.7,1.6c0,8.1-7.2,26.3-4.4,41.7c2.8,15.3,4.4,64.2,4.4,70.8
	c0,6.6-15.3,16-13.2,24.1c2.2,8.1,10.3,16,32.3,16c21.9,0,56.1-0.6,60.4-0.6c4.4,0,21.9,0.6,21.9,0.6S790.4,858.8,780.6,855z"/>
</svg>
